<?xml version="1.0" standalone="no"?>
<!DOCTYPE svg PUBLIC "-//W3C//DTD SVG 20010904//EN"
 "http://www.w3.org/TR/2001/REC-SVG-20010904/DTD/svg10.dtd">
<svg version="1.0" xmlns="http://www.w3.org/2000/svg"
 width="600.000000pt" height="600.000000pt" viewBox="0 0 600.000000 600.000000"
 preserveAspectRatio="xMidYMid meet">

<g transform="translate(0.000000,600.000000) scale(0.100000,-0.100000)"
fill="#000000" stroke="none">
<path d="M855 5140 l-210 -210 965 -965 965 -965 -965 -965 -965 -965 213
-212 212 -213 965 965 965 965 965 -965 965 -965 212 213 213 212 -965 965
-965 965 965 965 965 965 -213 212 -212 213 -965 -965 -965 -965 -963 963
c-529 529 -964 962 -967 962 -3 0 -100 -95 -215 -210z"/>
</g>
</svg>
